ffmpeg started on 2016-12-05 at 18:27:11
Report written to "Output/x264/results/ffmpeg/crowd_run_2160p50faster8000k.log"
Command line:
Tools/ffmpeg/ffmpeg -benchmark -y -i Input/y4m/crowd_run_2160p50.y4m -c:v libx264 -preset faster -b:v 8000k -an Output/x264/encoded/crowd_run_2160p50faster8000k.mkv
ffmpeg version N-82227-gdb23fde Copyright (c) 2000-2016 the FFmpeg developers
  built with gcc 5.4.0 (Ubuntu 5.4.0-6ubuntu1~16.04.2) 20160609
  configuration: --prefix=/home/jaroslav/ffmpeg_build --pkg-config-flags=--static --extra-cflags=-I/home/jaroslav/ffmpeg_build/include --extra-ldflags=-L/home/jaroslav/ffmpeg_build/lib --bindir=/home/jaroslav/bin --enable-gpl --enable-libass --enable-libfdk-aac --enable-libfreetype --enable-libmp3lame --enable-libopus --enable-libtheora --enable-libvorbis --enable-libvpx --enable-libx264 --enable-libx265 --enable-nvenc --enable-libmfx --enable-libxvid --enable-libgsm --enable-libopencore-amrnb --enable-version3 --enable-nonfree
  libavutil      55. 35.100 / 55. 35.100
  libavcodec     57. 66.101 / 57. 66.101
  libavformat    57. 57.100 / 57. 57.100
  libavdevice    57.  2.100 / 57.  2.100
  libavfilter     6. 66.100 /  6. 66.100
  libswscale      4.  3.100 /  4.  3.100
  libswresample   2.  4.100 /  2.  4.100
  libpostproc    54.  2.100 / 54.  2.100
Input #0, yuv4mpegpipe, from 'Input/y4m/crowd_run_2160p50.y4m':
  Duration: 00:00:10.00, start: 0.000000, bitrate: 4976642 kb/s
    Stream #0:0: Video: rawvideo (I420 / 0x30323449), yuv420p(progressive), 3840x2160, SAR 1:1 DAR 16:9, 50 fps, 50 tbr, 50 tbn, 50 tbc
[libx264 @ 0x41dc1c0] using SAR=1/1
[libx264 @ 0x41dc1c0] using cpu capabilities: MMX2 SSE2Fast SSSE3 SSE4.2 AVX FMA3 AVX2 LZCNT BMI2
[libx264 @ 0x41dc1c0] profile High, level 5.2
[libx264 @ 0x41dc1c0] 264 - core 148 - H.264/MPEG-4 AVC codec - Copyleft 2003-2016 - http://www.videolan.org/x264.html - options: cabac=1 ref=2 deblock=1:0:0 analyse=0x3:0x113 me=hex subme=4 psy=1 psy_rd=1.00:0.00 mixed_ref=0 me_range=16 chroma_me=1 trellis=1 8x8dct=1 cqm=0 deadzone=21,11 fast_pskip=1 chroma_qp_offset=0 threads=6 lookahead_threads=1 sliced_threads=0 nr=0 decimate=1 interlaced=0 bluray_compat=0 constrained_intra=0 bframes=3 b_pyramid=2 b_adapt=1 b_bias=0 direct=1 weightb=1 open_gop=0 weightp=1 keyint=250 keyint_min=25 scenecut=40 intra_refresh=0 rc_lookahead=20 rc=abr mbtree=1 bitrate=8000 ratetol=1.0 qcomp=0.60 qpmin=0 qpmax=69 qpstep=4 ip_ratio=1.40 aq=1:1.00
Output #0, matroska, to 'Output/x264/encoded/crowd_run_2160p50faster8000k.mkv':
  Metadata:
    encoder         : Lavf57.57.100
    Stream #0:0: Video: h264 (libx264) (H264 / 0x34363248), yuv420p, 3840x2160 [SAR 1:1 DAR 16:9], q=-1--1, 8000 kb/s, 50 fps, 1k tbn, 50 tbc
    Metadata:
      encoder         : Lavc57.66.101 libx264
    Side data:
      cpb: bitrate max/min/avg: 0/0/8000000 buffer size: 0 vbv_delay: -1
Stream mapping:
  Stream #0:0 -> #0:0 (rawvideo (native) -> h264 (libx264))
Press [q] to stop, [?] for help
frame=   19 fps=0.0 q=0.0 size=       0kB time=00:00:00.00 bitrate=N/A speed=   0x    frame=   27 fps= 15 q=0.0 size=       0kB time=00:00:00.00 bitrate=N/A speed=   0x    frame=   32 fps= 14 q=37.0 size=       1kB time=-00:00:00.01 bitrate=N/A speed=N/A    frame=   39 fps= 14 q=52.0 size=       1kB time=00:00:00.12 bitrate=  48.5kbits/s speed=0.0419x    frame=   48 fps= 14 q=51.0 size=       1kB time=00:00:00.30 bitrate=  19.5kbits/s speed=0.086x    frame=   57 fps= 14 q=51.0 size=       1kB time=00:00:00.48 bitrate=  12.2kbits/s speed=0.12x    frame=   66 fps= 15 q=51.0 size=       1kB time=00:00:00.66 bitrate=   8.9kbits/s speed=0.145x    frame=   75 fps= 15 q=51.0 size=       1kB time=00:00:00.84 bitrate=   7.0kbits/s speed=0.166x    frame=   84 fps= 15 q=51.0 size=       1kB time=00:00:01.02 bitrate=   5.7kbits/s speed=0.179x    frame=   93 fps= 15 q=51.0 size=       1kB time=00:00:01.20 bitrate=   4.9kbits/s speed=0.193x    frame=  101 fps= 15 q=51.0 size=       1kB time=00:00:01.36 bitrate=   4.3kbits/s speed=0.202x    frame=  110 fps= 15 q=51.0 size=       1kB time=00:00:01.54 bitrate=   3.8kbits/s speed=0.213x    frame=  119 fps= 15 q=51.0 size=       1kB time=00:00:01.72 bitrate=   3.4kbits/s speed=0.222x    frame=  128 fps= 15 q=50.0 size=       1kB time=00:00:01.90 bitrate=   3.1kbits/s speed=0.226x    frame=  137 fps= 15 q=50.0 size=       1kB time=00:00:02.08 bitrate=   2.8kbits/s speed=0.233x    frame=  146 fps= 15 q=50.0 size=       1kB time=00:00:02.26 bitrate=   2.6kbits/s speed=0.24x    frame=  155 fps= 16 q=50.0 size=       1kB time=00:00:02.44 bitrate=   2.4kbits/s speed=0.245x    frame=  164 fps= 15 q=50.0 size=       1kB time=00:00:02.62 bitrate=   2.2kbits/s speed=0.247x    frame=  173 fps= 16 q=50.0 size=       1kB time=00:00:02.80 bitrate=   2.1kbits/s speed=0.252x    frame=  182 fps= 16 q=50.0 size=       1kB time=00:00:02.98 bitrate=   2.0kbits/s speed=0.256x    frame=  191 fps= 16 q=50.0 size=       1kB time=00:00:03.16 bitrate=   1.9kbits/s speed=0.26x    frame=  200 fps= 16 q=50.0 size=       1kB time=00:00:03.34 bitrate=   1.8kbits/s speed=0.262x    frame=  209 fps= 16 q=50.0 size=       1kB time=00:00:03.52 bitrate=   1.7kbits/s speed=0.265x    frame=  218 fps= 16 q=50.0 size=       1kB time=00:00:03.70 bitrate=   1.6kbits/s speed=0.264x    frame=  228 fps= 16 q=50.0 size=       1kB time=00:00:03.90 bitrate=   1.5kbits/s speed=0.268x    frame=  237 fps= 16 q=50.0 size=       1kB time=00:00:04.08 bitrate=   1.4kbits/s speed=0.27x    frame=  246 fps= 16 q=50.0 size=       1kB time=00:00:04.26 bitrate=   1.4kbits/s speed=0.273x    frame=  255 fps= 16 q=50.0 size=       1kB time=00:00:04.44 bitrate=   1.3kbits/s speed=0.275x    frame=  264 fps= 16 q=50.0 size=       1kB time=00:00:04.62 bitrate=   1.3kbits/s speed=0.275x    frame=  273 fps= 16 q=50.0 size=       1kB time=00:00:04.80 bitrate=   1.2kbits/s speed=0.278x    frame=  277 fps= 15 q=50.0 size=       1kB time=00:00:04.88 bitrate=   1.2kbits/s speed=0.27x    frame=  286 fps= 15 q=50.0 size=    5125kB time=00:00:05.06 bitrate=8294.8kbits/s speed=0.269x    frame=  294 fps= 15 q=50.0 size=    5125kB time=00:00:05.22 bitrate=8040.6kbits/s speed=0.27x    frame=  303 fps= 15 q=50.0 size=    5125kB time=00:00:05.40 bitrate=7772.6kbits/s speed=0.272x    frame=  312 fps= 15 q=50.0 size=    5125kB time=00:00:05.58 bitrate=7522.0kbits/s speed=0.273x    frame=  320 fps= 15 q=50.0 size=    5125kB time=00:00:05.74 bitrate=7312.3kbits/s speed=0.274x    frame=  329 fps= 15 q=50.0 size=    5125kB time=00:00:05.92 bitrate=7090.0kbits/s speed=0.275x    frame=  338 fps= 15 q=50.0 size=    5125kB time=00:00:06.10 bitrate=6880.8kbits/s speed=0.277x    frame=  347 fps= 15 q=50.0 size=    5125kB time=00:00:06.28 bitrate=6683.7kbits/s speed=0.278x    frame=  356 fps= 15 q=50.0 size=    5125kB time=00:00:06.46 bitrate=6497.5kbits/s speed=0.278x    frame=  365 fps= 15 q=50.0 size=    5125kB time=00:00:06.64 bitrate=6321.3kbits/s speed=0.28x    frame=  374 fps= 15 q=50.0 size=    5125kB time=00:00:06.82 bitrate=6154.5kbits/s speed=0.281x    frame=  383 fps= 15 q=50.0 size=    5125kB time=00:00:07.00 bitrate=5996.3kbits/s speed=0.282x    frame=  392 fps= 15 q=50.0 size=    5125kB time=00:00:07.18 bitrate=5846.0kbits/s speed=0.283x    frame=  400 fps= 15 q=50.0 size=    5125kB time=00:00:07.34 bitrate=5718.6kbits/s speed=0.284x    frame=  408 fps= 15 q=50.0 size=    5125kB time=00:00:07.50 bitrate=5596.6kbits/s speed=0.284x    frame=  416 fps= 15 q=50.0 size=    5125kB time=00:00:07.66 bitrate=5479.7kbits/s speed=0.284x    frame=  425 fps= 15 q=50.0 size=    5125kB time=00:00:07.84 bitrate=5353.9kbits/s speed=0.286x    frame=  433 fps= 15 q=50.0 size=    5125kB time=00:00:08.00 bitrate=5246.9kbits/s speed=0.286x    frame=  441 fps= 15 q=50.0 size=    5125kB time=00:00:08.16 bitrate=5144.0kbits/s speed=0.286x    frame=  447 fps= 15 q=50.0 size=    5125kB time=00:00:08.28 bitrate=5069.4kbits/s speed=0.285x    frame=  456 fps= 15 q=50.0 size=    5125kB time=00:00:08.46 bitrate=4961.6kbits/s speed=0.286x    frame=  464 fps= 15 q=50.0 size=    5125kB time=00:00:08.62 bitrate=4869.5kbits/s speed=0.286x    frame=  472 fps= 15 q=50.0 size=    5125kB time=00:00:08.78 bitrate=4780.8kbits/s speed=0.287x    frame=  481 fps= 15 q=50.0 size=    5125kB time=00:00:08.96 bitrate=4684.8kbits/s speed=0.288x    frame=  489 fps= 15 q=50.0 size=    5125kB time=00:00:09.12 bitrate=4602.6kbits/s speed=0.288x    frame=  497 fps= 15 q=50.0 size=    5125kB time=00:00:09.28 bitrate=4523.2kbits/s speed=0.288x    frame=  500 fps= 15 q=-1.0 Lsize=   10193kB time=00:00:09.94 bitrate=8400.0kbits/s speed=0.295x    
video:10189kB audio:0kB subtitle:0kB other streams:0kB global headers:0kB muxing overhead: 0.043782%
bench: utime=113.532s
bench: maxrss=1341708kB
[libx264 @ 0x41dc1c0] frame I:2     Avg QP:38.26  size:243885
[libx264 @ 0x41dc1c0] frame P:126   Avg QP:48.29  size: 36891
[libx264 @ 0x41dc1c0] frame B:372   Avg QP:50.25  size: 14239
[libx264 @ 0x41dc1c0] consecutive B-frames:  0.8%  0.0%  0.0% 99.2%
[libx264 @ 0x41dc1c0] mb I  I16..4: 30.4% 55.7% 13.9%
[libx264 @ 0x41dc1c0] mb P  I16..4: 12.5% 17.7%  0.0%  P16..4: 10.7%  1.0%  0.2%  0.0%  0.0%    skip:57.9%
[libx264 @ 0x41dc1c0] mb B  I16..4:  1.2%  1.1%  0.0%  B16..8: 15.1%  0.7%  0.0%  direct: 6.6%  skip:75.3%  L0:46.1% L1:53.2% BI: 0.7%
[libx264 @ 0x41dc1c0] final ratefactor: 42.05
[libx264 @ 0x41dc1c0] 8x8 transform intra:56.2% inter:90.2%
[libx264 @ 0x41dc1c0] coded y,uvDC,uvAC intra: 16.1% 52.5% 10.0% inter: 1.8% 5.8% 0.0%
[libx264 @ 0x41dc1c0] i16 v,h,dc,p: 51% 23% 16% 10%
[libx264 @ 0x41dc1c0] i8 v,h,dc,ddl,ddr,vr,hd,vl,hu: 15% 12% 50%  5%  3%  4%  4%  4%  3%
[libx264 @ 0x41dc1c0] i4 v,h,dc,ddl,ddr,vr,hd,vl,hu: 21% 17% 11%  9%  9%  9%  8%  9%  8%
[libx264 @ 0x41dc1c0] i8c dc,h,v,p: 87%  5%  8%  1%
[libx264 @ 0x41dc1c0] Weighted P-Frames: Y:1.6% UV:0.0%
[libx264 @ 0x41dc1c0] ref P L0: 69.6% 30.4%
[libx264 @ 0x41dc1c0] ref B L0: 88.1% 11.9%
[libx264 @ 0x41dc1c0] ref B L1: 96.6%  3.4%
[libx264 @ 0x41dc1c0] kb/s:8346.27
